<?xml version="1.0" standalone="no"?>
<!DOCTYPE svg PUBLIC "-//W3C//DTD SVG 20010904//EN"
 "http://www.w3.org/TR/2001/REC-SVG-20010904/DTD/svg10.dtd">
<svg version="1.0" xmlns="http://www.w3.org/2000/svg"
 width="1050.000000pt" height="600.000000pt" viewBox="0 0 1050.000000 600.000000"
 preserveAspectRatio="xMidYMid meet">

<g transform="translate(0.000000,600.000000) scale(0.100000,-0.100000)"
fill="#D6D3D3" stroke="none">
<path d="M5185 5036 c-22 -7 -96 -41 -165 -76 l-124 -62 -170 20 c-201 25
-198 26 -217 -77 l-12 -68 -80 -44 c-100 -54 -140 -95 -168 -168 -18 -50 -20
-73 -17 -211 4 -172 12 -204 74 -266 31 -31 32 -33 14 -49 -10 -9 -31 -44 -46
-78 -28 -60 -29 -68 -29 -217 0 -250 -10 -239 460 -480 365 -186 513 -242 651
-244 80 -1 49 -14 419 178 379 197 432 233 455 314 15 54 13 197 -4 235 -7 18
-28 45 -45 61 -17 17 -27 32 -23 35 18 13 51 70 71 124 15 42 21 81 21 140 0
82 -1 84 -43 142 -41 57 -42 62 -32 95 6 19 19 51 29 72 17 33 18 45 8 122
-13 100 -31 140 -75 166 -102 62 -797 339 -867 346 -25 2 -63 -2 -85 -10z
m335 -99 c107 -42 292 -117 410 -169 251 -109 249 -107 257 -242 3 -47 1 -91
-4 -101 -9 -15 -13 -11 -32 27 -50 104 -190 202 -378 264 -133 43 -372 102
-520 128 -79 14 -161 30 -183 36 -21 6 -51 8 -65 4 -14 -3 -32 -3 -41 0 -17 6
89 67 196 113 83 36 131 28 360 -60z m-835 -39 c77 -9 94 -14 98 -30 6 -22 27
-24 27 -3 0 17 40 21 57 4 6 -6 53 -11 104 -12 154 -3 523 -82 773 -164 61
-20 75 -28 62 -35 -9 -5 -16 -13 -16 -18 0 -15 28 -12 37 5 5 9 17 12 30 9 18
-5 21 -10 13 -24 -7 -13 -7 -21 0 -25 6 -3 14 3 18 15 7 20 9 19 67 -15 78
-47 141 -108 171 -167 37 -73 30 -114 -26 -143 -36 -19 -38 -19 -36 -1 0 8 -3
15 -9 15 -5 0 -9 -8 -8 -17 1 -9 -4 -20 -10 -24 -14 -9 -25 15 -26 55 -1 19
-16 44 -48 79 -61 64 -102 90 -189 119 -65 21 -88 22 -409 25 -266 3 -359 0
-427 -12 -125 -21 -205 -48 -267 -90 -30 -20 -75 -42 -102 -49 l-47 -13 -5 32
c-3 17 0 56 5 86 6 30 8 100 5 155 -5 103 7 221 25 243 13 15 16 15 133 0z
m-189 -348 c-4 -153 -3 -190 7 -190 8 0 24 -11 37 -25 13 -14 30 -25 38 -25 8
0 42 17 76 38 75 47 115 63 237 95 90 24 110 25 464 30 204 3 381 2 395 -2 20
-6 4 -12 -75 -30 -157 -35 -159 -36 -234 -84 -163 -106 -186 -154 -186 -393 0
-139 3 -164 19 -189 l18 -28 -23 6 c-68 15 -823 278 -876 305 -60 31 -84 55
-117 120 -14 27 -17 63 -18 185 0 141 1 156 24 207 14 30 36 64 49 76 26 23
149 94 163 94 5 0 6 -84 2 -190z m1210 -43 c4 -4 -154 -7 -350 -7 -326 0 -365
-2 -437 -20 -119 -31 -215 -68 -276 -107 -45 -28 -59 -33 -77 -25 -20 9 -20
10 9 17 17 4 64 27 105 50 89 51 121 62 248 84 80 15 155 17 434 17 185 -1
340 -5 344 -9z m211 -100 c25 -23 51 -53 59 -68 16 -32 19 -83 4 -74 -5 3 -10
17 -10 31 0 39 -26 79 -77 120 -65 52 -72 59 -44 44 13 -7 44 -31 68 -53z
m-60 7 c61 -43 100 -98 91 -125 -4 -11 -257 -119 -328 -140 -25 -7 -76 -30
-114 -51 -72 -40 -106 -47 -106 -25 0 17 -34 49 -43 40 -4 -3 -3 -11 2 -17 4
-6 11 -19 14 -29 6 -15 2 -18 -20 -15 -29 3 -45 -18 -16 -24 14 -3 17 -12 14
-50 -1 -25 2 -49 8 -52 6 -4 8 -25 4 -53 -5 -37 -3 -45 8 -41 17 6 24 75 11
120 -12 44 3 78 35 78 14 0 68 23 120 50 52 28 102 50 110 50 8 0 65 22 127
49 163 72 178 76 215 63 27 -10 40 -7 96 18 l64 29 38 -52 c34 -47 38 -59 41
-127 3 -62 -1 -87 -23 -145 -26 -69 -58 -115 -80 -115 -7 0 -42 -14 -79 -30
-36 -17 -90 -35 -119 -41 -29 -6 -73 -26 -100 -45 -28 -21 -59 -34 -77 -34
-38 0 -356 -158 -388 -193 -20 -22 -22 -28 -11 -45 11 -18 10 -24 -6 -42 -16
-18 -17 -25 -7 -58 11 -35 11 -38 -15 -60 l-28 -22 23 -7 c18 -4 23 -11 19
-27 -20 -86 -20 -89 -7 -84 8 2 20 23 28 46 19 57 33 43 25 -25 -5 -45 -3 -55
8 -51 8 2 15 20 17 39 1 19 4 43 7 55 5 22 123 107 165 119 14 4 49 23 78 43
29 19 103 56 165 82 62 27 136 59 165 73 50 23 92 26 92 6 0 -11 54 -39 75
-39 27 0 16 19 -20 34 -48 20 -44 36 10 36 51 0 66 26 18 32 -27 3 -26 4 16
25 l44 22 -5 -68 c-3 -40 -13 -85 -24 -106 -28 -54 -66 -76 -692 -400 l-73
-38 -52 28 c-71 38 -82 49 -97 98 -46 153 -27 311 61 492 28 59 30 61 151 127
171 93 399 200 494 232 65 21 86 25 108 16 15 -5 39 -10 53 -10 17 0 27 -7 30
-20 7 -26 29 -20 25 6 -6 39 -12 44 -54 44 l-43 0 28 19 c15 10 35 28 43 40 8
11 22 21 30 21 9 0 14 6 11 13 -7 19 -39 8 -69 -23 -14 -16 -39 -32 -55 -36
-15 -4 -37 -13 -48 -20 -11 -7 -40 -18 -64 -24 -58 -15 -381 -168 -498 -236
-110 -63 -152 -70 -179 -29 -14 21 -17 54 -18 178 -2 226 19 271 173 372 57
37 86 49 187 71 65 15 123 33 129 41 5 7 12 13 14 13 2 0 33 -21 68 -46z
m-1446 -394 c22 -12 191 -72 377 -134 185 -63 368 -126 406 -140 37 -14 86
-26 107 -26 l38 0 -23 -53 c-38 -85 -75 -211 -82 -279 -7 -75 9 -195 36 -255
12 -27 32 -51 55 -64 20 -12 35 -23 33 -24 -7 -7 -151 26 -224 51 -84 28 -461
210 -659 318 -190 104 -210 139 -203 353 4 136 22 199 70 250 26 28 20 27 69
3z m1758 -225 c31 -27 60 -93 45 -104 -88 -64 -146 -93 -374 -191 -190 -81
-416 -203 -428 -232 -2 -5 -8 -6 -13 -3 -4 3 8 27 27 53 33 42 36 51 32 99 -3
32 -12 61 -23 73 -11 12 -15 24 -9 29 28 26 295 151 323 151 19 0 49 13 78 34
27 19 76 42 111 50 35 9 86 27 115 41 67 30 79 30 116 0z m-745 -329 c19 -40
20 -69 5 -99 -13 -25 -50 -67 -58 -67 -12 0 -6 107 7 123 8 9 11 25 7 36 -7
22 0 41 14 41 5 0 16 -15 25 -34z"/>
<path d="M5280 4989 c0 -9 78 -43 208 -92 114 -42 210 -77 215 -77 54 1 -158
93 -410 178 -7 2 -13 -2 -13 -9z"/>
<path d="M5730 4817 c0 -19 90 -51 103 -38 6 6 -3 15 -25 24 -65 27 -78 29
-78 14z"/>
<path d="M6098 4614 c-16 -8 -28 -18 -28 -23 0 -18 14 -18 46 1 55 33 39 53
-18 22z"/>
<path d="M4576 4873 c-12 -13 -6 -64 9 -70 21 -7 32 4 17 19 -7 7 -12 17 -12
22 0 6 5 5 11 -1 6 -6 18 -9 25 -6 20 8 17 35 -3 31 -10 -1 -23 1 -29 4 -6 4
-14 5 -18 1z"/>
<path d="M4826 4855 c-3 -8 -15 -15 -26 -15 -11 0 -20 -7 -20 -15 0 -8 7 -15
15 -15 19 0 55 31 55 47 0 18 -17 16 -24 -2z"/>
<path d="M4915 4840 c-8 -13 3 -30 21 -30 18 0 18 14 0 29 -10 8 -16 9 -21 1z"/>
<path d="M4854 4826 c-8 -22 3 -33 18 -18 9 9 9 15 0 24 -9 9 -13 7 -18 -6z"/>
<path d="M4706 4814 c-9 -23 4 -64 20 -64 15 0 19 16 5 24 -4 3 -6 17 -3 31 5
27 -12 35 -22 9z"/>
<path d="M4956 4815 c-3 -8 -15 -15 -26 -15 -22 0 -27 -15 -9 -26 17 -10 59
17 59 38 0 22 -16 24 -24 3z"/>
<path d="M4540 4806 c0 -9 7 -16 16 -16 17 0 14 22 -4 28 -7 2 -12 -3 -12 -12z"/>
<path d="M4743 4805 c-3 -9 -3 -18 0 -21 9 -9 27 6 27 22 0 19 -19 18 -27 -1z"/>
<path d="M4997 4802 c-24 -26 -21 -39 9 -46 47 -12 91 21 64 48 -8 8 -12 4
-16 -12 -6 -21 -44 -32 -44 -12 0 5 7 7 15 4 19 -8 20 10 2 25 -11 8 -18 7
-30 -7z"/>
<path d="M4617 4796 c-6 -15 1 -26 15 -26 11 0 10 27 -1 34 -5 3 -11 0 -14 -8z"/>
<path d="M4827 4771 c-6 -23 20 -64 35 -55 6 4 6 10 -1 17 -16 16 -14 24 7 23
9 -1 17 4 17 9 0 6 -5 10 -12 10 -6 0 -15 4 -19 8 -12 12 -21 8 -27 -12z"/>
<path d="M5125 4779 c-4 -6 -4 -13 -1 -16 8 -8 36 5 36 17 0 13 -27 13 -35 -1z"/>
<path d="M5214 4776 c-8 -22 3 -33 18 -18 9 9 9 15 0 24 -9 9 -13 7 -18 -6z"/>
<path d="M5289 4783 c-1 -5 -1 -12 0 -17 1 -4 -3 -14 -10 -22 -13 -15 -4 -34
17 -34 17 0 19 16 3 26 -8 4 -8 9 0 17 14 14 14 37 1 37 -5 0 -11 -3 -11 -7z"/>
<path d="M4670 4756 c0 -9 7 -16 16 -16 9 0 14 5 12 12 -6 18 -28 21 -28 4z"/>
<path d="M4765 4759 c-4 -6 -4 -13 -1 -16 8 -8 36 5 36 17 0 13 -27 13 -35 -1z"/>
<path d="M5075 4760 c-4 -6 -3 -16 3 -22 6 -6 12 -6 17 2 4 6 3 16 -3 22 -6 6
-12 6 -17 -2z"/>
<path d="M4560 4720 c0 -11 4 -20 9 -20 11 0 22 26 14 34 -12 12 -23 5 -23
-14z"/>
<path d="M4642 4724 c-16 -31 16 -91 34 -63 4 7 0 17 -9 24 -12 9 -14 14 -5
23 9 9 9 15 1 23 -8 8 -14 6 -21 -7z"/>
<path d="M4947 4725 c-8 -18 9 -65 22 -65 15 0 23 18 11 25 -6 4 -10 16 -8 27
4 25 -17 36 -25 13z"/>
<path d="M5142 4723 c2 -10 11 -19 21 -21 16 -3 17 -1 7 17 -13 25 -33 28 -28
4z"/>
<path d="M5402 4728 c3 -7 12 -14 21 -16 12 -2 15 1 11 12 -7 19 -38 22 -32 4z"/>
<path d="M4792 4718 c5 -15 28 -18 29 -3 0 6 -7 12 -17 13 -10 3 -15 -1 -12
-10z"/>
<path d="M4985 4719 c-10 -15 1 -23 20 -15 9 3 13 10 10 16 -8 13 -22 13 -30
-1z"/>
<path d="M5320 4716 c0 -8 -10 -16 -22 -18 -26 -3 -28 -21 -3 -26 18 -4 58 36
49 49 -8 14 -24 10 -24 -5z"/>
<path d="M5450 4715 c0 -9 -10 -15 -26 -15 -27 0 -30 -23 -3 -28 18 -3 62 36
54 49 -9 14 -25 11 -25 -6z"/>
<path d="M4675 4711 c-3 -5 -1 -12 5 -16 12 -7 30 2 30 16 0 12 -27 12 -35 0z"/>
<path d="M5186 4705 c-3 -8 -15 -15 -26 -15 -11 0 -20 -5 -20 -10 0 -16 30
-24 43 -11 15 15 27 14 27 -4 0 -17 16 -20 25 -5 3 6 -1 13 -9 16 -9 3 -16 15
-16 25 0 23 -15 25 -24 4z"/>
<path d="M5060 4695 c-7 -9 -11 -18 -8 -20 7 -8 38 5 38 15 0 17 -18 19 -30 5z"/>
<path d="M5637 4696 c-6 -15 1 -26 15 -26 4 0 8 9 8 20 0 23 -15 27 -23 6z"/>
<path d="M5474 4686 c-8 -22 3 -33 18 -18 9 9 9 15 0 24 -9 9 -13 7 -18 -6z"/>
<path d="M5542 4689 c2 -7 10 -15 17 -17 8 -3 12 1 9 9 -2 7 -10 15 -17 17 -8
3 -12 -1 -9 -9z"/>
<path d="M5345 4680 c-8 -13 4 -32 16 -25 12 8 12 35 0 35 -6 0 -13 -4 -16
-10z"/>
<path d="M5586 4675 c-3 -8 -15 -15 -27 -15 -15 0 -19 -4 -15 -15 3 -9 -1 -18
-9 -21 -17 -7 -20 -34 -4 -34 6 0 13 8 16 18 2 10 17 24 34 31 17 8 29 20 29
32 0 23 -15 25 -24 4z"/>
<path d="M4612 4666 c1 -10 8 -17 13 -17 15 1 12 24 -3 29 -9 3 -13 -2 -10
-12z"/>
<path d="M4912 4668 c5 -15 28 -18 29 -3 0 6 -7 12 -17 13 -10 3 -15 -1 -12
-10z"/>
<path d="M4726 4654 c-4 -10 -1 -21 6 -26 7 -4 9 -8 4 -8 -5 0 -3 -7 4 -15 10
-12 16 -13 24 -5 8 8 7 13 -2 19 -8 4 -12 16 -10 26 4 24 -18 31 -26 9z"/>
<path d="M5255 4660 c-8 -13 4 -32 16 -25 12 8 12 35 0 35 -6 0 -13 -4 -16
-10z"/>
<path d="M4770 4650 c-8 -5 -11 -12 -8 -16 10 -9 38 3 38 16 0 12 -10 13 -30
0z"/>
<path d="M4835 4643 c-3 -10 -1 -19 4 -21 6 -2 9 -7 6 -12 -6 -10 24 -35 32
-26 4 4 2 16 -5 26 -6 11 -9 26 -6 35 4 9 1 15 -9 15 -8 0 -18 -8 -22 -17z"/>
<path d="M5080 4645 c0 -8 5 -15 10 -15 6 0 10 7 10 15 0 8 -4 15 -10 15 -5 0
-10 -7 -10 -15z"/>
<path d="M5380 4646 c0 -18 17 -29 30 -21 8 5 7 11 -1 21 -15 18 -29 18 -29 0z"/>
<path d="M5616 4653 c-9 -9 -7 -33 3 -33 12 0 22 28 12 34 -5 3 -11 3 -15 -1z"/>
<path d="M5680 4646 c0 -18 17 -29 30 -21 8 5 7 11 -1 21 -15 18 -29 18 -29 0z"/>
<path d="M4585 4640 c-8 -13 3 -30 21 -30 18 0 18 14 0 29 -10 8 -16 9 -21 1z"/>
<path d="M4881 4641 c-7 -5 -11 -14 -7 -19 9 -15 36 -4 36 14 0 16 -9 18 -29
5z"/>
<path d="M5011 4636 c-8 -10 -9 -16 -1 -21 13 -8 30 3 30 21 0 18 -14 18 -29
0z"/>
<path d="M5132 4638 c3 -7 12 -14 21 -16 12 -2 15 1 11 12 -7 19 -38 22 -32 4z"/>
<path d="M4934 4626 c-8 -22 3 -33 18 -18 9 9 9 15 0 24 -9 9 -13 7 -18 -6z"/>
<path d="M5176 4625 c-3 -8 -15 -15 -26 -15 -24 0 -27 -18 -5 -27 18 -6 55 23
55 44 0 18 -16 17 -24 -2z"/>
<path d="M5291 4627 c-6 -8 -8 -17 -4 -20 7 -8 33 11 33 24 0 13 -16 11 -29
-4z"/>
<path d="M5426 4625 c-3 -8 -15 -15 -26 -15 -11 0 -20 -4 -20 -10 0 -14 43
-13 58 2 14 14 16 38 3 38 -5 0 -11 -7 -15 -15z"/>
<path d="M5485 4630 c-8 -13 4 -32 16 -25 12 8 12 35 0 35 -6 0 -13 -4 -16
-10z"/>
<path d="M5726 4625 c-3 -8 -15 -15 -26 -15 -11 0 -20 -4 -20 -10 0 -5 9 -10
19 -10 15 0 18 -5 14 -21 -4 -16 -2 -20 8 -17 8 3 14 14 14 25 0 12 3 25 8 29
10 10 9 34 -2 34 -5 0 -11 -7 -15 -15z"/>
<path d="M4634 4615 c-4 -8 -15 -15 -25 -15 -10 0 -19 -7 -19 -15 0 -8 7 -15
16 -15 17 0 54 36 54 52 0 14 -20 9 -26 -7z"/>
<path d="M4700 4596 c0 -9 7 -16 16 -16 9 0 14 5 12 12 -6 18 -28 21 -28 4z"/>
<path d="M4994 4596 c-8 -22 3 -33 18 -18 9 9 9 15 0 24 -9 9 -13 7 -18 -6z"/>
<path d="M5050 4590 c0 -11 5 -20 10 -20 6 0 10 9 10 20 0 11 -4 20 -10 20 -5
0 -10 -9 -10 -20z"/>
<path d="M5454 4596 c-8 -22 3 -33 18 -18 9 9 9 15 0 24 -9 9 -13 7 -18 -6z"/>
<path d="M5621 4596 c-14 -17 -1 -28 19 -16 11 7 12 12 4 20 -8 8 -14 7 -23
-4z"/>
<path d="M5754 4596 c-8 -22 3 -33 18 -18 9 9 9 15 0 24 -9 9 -13 7 -18 -6z"/>
<path d="M4810 4586 c0 -9 7 -16 16 -16 17 0 14 22 -4 28 -7 2 -12 -3 -12 -12z"/>
<path d="M5200 4584 c0 -17 22 -14 28 4 2 7 -3 12 -12 12 -9 0 -16 -7 -16 -16z"/>
<path d="M5247 4586 c-6 -16 2 -28 14 -20 12 7 11 34 0 34 -5 0 -11 -6 -14
-14z"/>
<path d="M5325 4590 c-8 -13 4 -32 16 -25 12 8 12 35 0 35 -6 0 -13 -4 -16
-10z"/>
<path d="M5560 4585 c0 -8 5 -15 10 -15 6 0 10 7 10 15 0 8 -4 15 -10 15 -5 0
-10 -7 -10 -15z"/>
<path d="M5840 4586 c0 -15 24 -28 34 -19 7 7 -13 33 -25 33 -5 0 -9 -6 -9
-14z"/>
<path d="M4655 4580 c-8 -13 4 -32 16 -25 12 8 12 35 0 35 -6 0 -13 -4 -16
-10z"/>
<path d="M4937 4583 c-12 -11 -8 -23 8 -23 8 0 15 7 15 15 0 16 -12 20 -23 8z"/>
<path d="M5892 4573 c-7 -13 -22 -23 -32 -23 -11 0 -20 -4 -20 -10 0 -15 46
-12 60 5 6 8 10 22 8 32 -3 16 -5 15 -16 -4z"/>
<path d="M5793 4573 c-16 -6 -17 -33 -3 -33 11 0 26 28 19 34 -2 2 -10 1 -16
-1z"/>
<path d="M4867 4563 c-12 -11 -8 -23 8 -23 8 0 15 7 15 15 0 16 -12 20 -23 8z"/>
<path d="M4680 4544 c0 -9 5 -14 12 -12 18 6 21 28 4 28 -9 0 -16 -7 -16 -16z"/>
<path d="M4765 4549 c-4 -6 -5 -13 -2 -16 7 -7 27 6 27 18 0 12 -17 12 -25 -2z"/>
<path d="M5970 4545 c0 -8 5 -15 10 -15 6 0 10 7 10 15 0 8 -4 15 -10 15 -5 0
-10 -7 -10 -15z"/>
<path d="M4575 4540 c-10 -17 12 -37 25 -24 8 8 6 15 -4 23 -10 9 -16 9 -21 1z"/>
<path d="M5916 4543 c-9 -9 -7 -33 3 -33 12 0 22 28 12 34 -5 3 -11 3 -15 -1z"/>
<path d="M4620 4515 c0 -9 -9 -15 -25 -15 -27 0 -34 -17 -10 -26 9 -4 14 -13
13 -22 -2 -8 3 -17 11 -20 10 -3 12 2 8 21 -5 16 -2 29 8 37 17 14 20 40 5 40
-5 0 -10 -7 -10 -15z"/>
<path d="M4704 4506 c-8 -22 3 -33 18 -18 9 9 9 15 0 24 -9 9 -13 7 -18 -6z"/>
<path d="M5990 4501 c0 -12 6 -21 16 -21 9 0 14 7 12 17 -5 25 -28 28 -28 4z"/>
<path d="M5917 4486 c-6 -16 2 -28 14 -20 12 7 11 34 0 34 -5 0 -11 -6 -14
-14z"/>
<path d="M4640 4474 c0 -9 5 -14 12 -12 18 6 21 28 4 28 -9 0 -16 -7 -16 -16z"/>
<path d="M5970 4468 c0 -20 46 -30 68 -14 22 16 13 23 -28 22 -22 0 -40 -4
-40 -8z"/>
<path d="M4540 4446 c0 -8 4 -17 9 -20 10 -7 23 19 14 28 -11 11 -23 6 -23 -8z"/>
<path d="M6050 4439 c0 -5 -4 -8 -9 -5 -5 3 -14 -1 -21 -9 -15 -18 -3 -19 34
-5 28 10 35 30 11 30 -8 0 -15 -5 -15 -11z"/>
<path d="M6056 4383 c-12 -12 -6 -33 9 -33 8 0 15 6 15 14 0 17 -14 28 -24 19z"/>
<path d="M6114 4376 c-8 -22 3 -33 18 -18 9 9 9 15 0 24 -9 9 -13 7 -18 -6z"/>
<path d="M4402 4618 c-45 -32 -69 -89 -76 -185 -5 -67 -4 -83 7 -83 11 0 16
23 21 87 8 101 24 137 72 165 34 20 45 38 21 38 -7 0 -27 -10 -45 -22z"/>
<path d="M5248 4390 c-30 -21 -62 -50 -71 -64 -28 -42 -51 -246 -28 -246 9 0
12 21 27 155 6 53 11 65 48 100 22 22 54 49 70 61 18 12 26 23 19 27 -6 4 -35
-11 -65 -33z"/>
<path d="M4320 4279 c0 -31 4 -48 10 -44 6 3 10 26 10 51 0 24 -4 44 -10 44
-5 0 -10 -23 -10 -51z"/>
<path d="M4327 4213 c-13 -12 -7 -68 9 -91 18 -27 39 -20 24 8 -5 10 -10 29
-10 42 0 27 -14 51 -23 41z"/>
<path d="M5126 4025 c-7 -37 0 -63 14 -48 13 13 16 76 4 80 -7 2 -15 -12 -18
-32z"/>
<path d="M5114 3898 c7 -41 20 -67 30 -57 2 2 2 25 -1 52 -4 33 -10 47 -21 47
-12 0 -13 -8 -8 -42z"/>
<path d="M5773 4158 c-20 -10 -33 -38 -18 -38 17 0 75 31 75 39 0 14 -28 13
-57 -1z"/>
<path d="M5700 4120 c-8 -6 -40 -17 -70 -26 -65 -20 -161 -66 -179 -87 -22
-27 5 -27 44 0 22 15 71 36 109 48 94 30 126 45 126 62 0 15 -9 16 -30 3z"/>
<path d="M5836 3444 c-19 -11 -25 -19 -18 -26 11 -11 72 16 72 32 0 14 -20 12
-54 -6z"/>
<path d="M5685 3383 c-76 -39 -135 -80 -135 -94 0 -16 23 -9 57 17 19 14 67
41 108 60 72 33 95 55 58 54 -10 -1 -49 -17 -88 -37z"/>
<path d="M4402 3978 c5 -14 239 -116 276 -120 55 -7 7 22 -121 74 -153 62
-161 65 -155 46z"/>
<path d="M4346 3936 c-44 -93 -58 -186 -40 -275 13 -61 24 -29 24 67 0 81 5
107 26 157 31 75 31 77 18 82 -6 2 -19 -12 -28 -31z"/>
<path d="M4735 3850 c-7 -11 19 -25 63 -35 19 -4 32 -3 32 3 0 14 -88 43 -95
32z"/>
<path d="M4865 3801 c-7 -12 0 -15 164 -72 114 -39 151 -47 151 -30 0 5 -64
31 -142 57 -79 26 -148 49 -154 51 -7 2 -15 0 -19 -6z"/>
<path d="M5166 3658 c-47 -63 -59 -125 -50 -250 12 -151 30 -142 26 12 -4 122
7 172 48 230 22 31 25 40 11 40 -6 0 -21 -15 -35 -32z"/>
<path d="M4320 3572 c0 -30 24 -71 35 -60 9 9 -14 88 -25 88 -6 0 -10 -13 -10
-28z"/>
<path d="M5135 3260 c-10 -16 3 -76 19 -89 17 -15 28 0 15 19 -5 8 -9 27 -9
42 0 29 -15 45 -25 28z"/>
<path d="M5205 2644 c-5 -1 -27 -5 -47 -9 -80 -13 -127 -89 -94 -153 18 -35
63 -55 162 -71 93 -16 131 -39 140 -86 5 -28 2 -43 -13 -63 -25 -35 -79 -62
-123 -62 -78 1 -160 63 -145 110 6 18 3 21 -12 18 -12 -2 -19 -14 -21 -35 -6
-59 72 -103 180 -103 130 1 213 115 143 199 -28 33 -54 43 -165 66 -99 21
-120 35 -120 83 0 58 34 85 114 90 73 5 113 -11 148 -58 18 -26 23 -28 31 -15
14 25 -18 63 -60 74 -48 11 -105 19 -118 15z"/>
<path d="M2850 2420 l0 -220 115 0 c133 0 175 13 199 59 39 74 -1 179 -69 181
l-20 1 20 14 c43 30 55 49 55 85 0 77 -46 100 -202 100 l-98 0 0 -220z m228
189 c53 -33 44 -123 -15 -148 -17 -7 -61 -11 -104 -9 l-74 3 -3 73 c-4 100 2
106 99 99 42 -3 86 -11 97 -18z m2 -187 c41 -20 60 -53 60 -103 0 -77 -62
-113 -185 -107 l-70 3 -3 99 c-1 55 0 106 2 113 8 21 152 17 196 -5z"/>
<path d="M3300 2420 l0 -220 156 0 c143 0 155 1 152 18 -2 9 -9 16 -15 15 -38
-7 -184 -23 -215 -23 l-38 0 0 215 c0 208 -1 215 -20 215 -19 0 -20 -7 -20
-220z"/>
<path d="M3720 2463 c0 -121 4 -186 13 -203 6 -14 32 -35 57 -48 57 -30 152
-27 218 7 l42 21 0 200 c0 171 -2 200 -15 200 -13 0 -15 -26 -16 -172 -1 -95
-4 -184 -8 -197 -16 -59 -108 -86 -187 -56 -67 26 -74 48 -74 255 0 144 -2
170 -15 170 -13 0 -15 -26 -15 -177z"/>
<path d="M4187 2634 c-4 -4 -7 -103 -7 -221 l0 -213 155 0 c151 0 155 1 155
21 0 16 -4 19 -17 15 -30 -12 -218 -30 -236 -23 -14 5 -17 22 -17 106 0 75 3
100 14 104 13 5 138 -7 183 -18 24 -6 36 5 24 23 -4 7 -45 12 -111 14 l-105 3
-3 86 c-2 69 0 88 12 92 15 6 151 -6 220 -18 34 -7 38 -5 34 11 -3 17 -15 19
-149 22 -80 1 -148 -1 -152 -4z"/>
<path d="M4730 2623 c0 -11 -31 -106 -70 -213 -38 -107 -70 -198 -70 -202 0
-5 8 -8 19 -8 13 0 22 13 32 51 18 66 53 94 114 93 61 -1 105 -31 138 -92 19
-34 35 -52 47 -52 17 0 14 12 -27 103 -128 288 -149 332 -166 335 -11 2 -17
-3 -17 -15z m73 -163 c31 -69 55 -126 53 -127 -1 -2 -20 7 -42 18 -30 16 -51
19 -91 16 l-51 -5 9 31 c5 18 19 66 30 107 21 76 28 94 34 88 2 -2 28 -59 58
-128z"/>
<path d="M5510 2619 c0 -18 4 -20 28 -14 52 14 98 21 110 17 9 -3 12 -57 12
-213 0 -179 2 -209 15 -209 11 0 15 12 16 48 0 26 1 118 2 204 1 90 6 161 12
167 7 7 30 6 70 -4 58 -13 84 -8 71 14 -5 7 -64 11 -172 11 -160 0 -164 0
-164 -21z"/>
<path d="M6073 2621 c-77 -36 -131 -144 -116 -237 19 -121 123 -205 240 -191
213 24 264 329 72 428 -50 25 -140 25 -196 0z m184 -11 c55 -33 85 -90 91
-170 6 -88 -14 -145 -68 -194 -70 -63 -163 -58 -231 14 -91 96 -68 293 41 351
47 25 125 25 167 -1z"/>
<path d="M6480 2633 c0 -24 189 -428 201 -431 10 -2 23 24 43 80 16 46 32 87
36 91 4 4 25 -33 48 -83 23 -49 47 -90 54 -90 12 0 159 397 158 428 0 6 -7 12
-15 12 -15 0 -25 -29 -90 -257 -21 -73 -41 -133 -44 -133 -10 0 -81 173 -81
197 0 12 13 58 29 102 16 44 27 82 23 85 -18 18 -33 -2 -55 -71 l-23 -78 -37
78 c-22 48 -42 77 -51 77 -23 0 -21 -8 24 -105 22 -48 40 -98 40 -111 0 -25
-36 -163 -45 -172 -5 -5 -26 39 -127 263 -35 78 -60 121 -71 123 -9 2 -17 0
-17 -5z"/>
<path d="M7130 2420 l0 -220 156 0 c143 0 155 1 152 18 -2 9 -9 16 -15 15 -38
-7 -184 -23 -215 -23 l-38 0 0 104 c0 58 4 107 9 110 9 6 161 -10 194 -20 12
-4 17 0 17 15 0 20 -5 21 -110 21 l-110 0 0 89 c0 69 3 90 15 94 8 4 54 2 102
-4 142 -16 148 -16 148 1 0 13 -25 15 -152 18 l-153 3 0 -221z"/>
<path d="M7560 2420 l0 -220 150 0 c146 0 150 1 150 21 0 16 -4 19 -17 15 -30
-12 -218 -30 -236 -23 -15 6 -17 28 -17 217 0 180 -2 210 -15 210 -13 0 -15
-31 -15 -220z"/>
</g>
</svg>
